<?xml version="1.0" encoding="UTF-8" standalone="no"?>
<svg width="17px" height="11px" viewBox="0 0 17 11" version="1.1" xmlns="http://www.w3.org/2000/svg" xmlns:xlink="http://www.w3.org/1999/xlink" xmlns:sketch="http://www.bohemiancoding.com/sketch/ns">
    <!-- Generator: bin/sketchtool 1.4 (305) - http://www.bohemiancoding.com/sketch -->
    <title>Behance</title>
    <desc>Created with bin/sketchtool.</desc>
    <defs></defs>
    <g id="Page-2" stroke="none" stroke-width="1" fill="none" fill-rule="evenodd" sketch:type="MSPage">
        <g id="Profiles" sketch:type="MSArtboardGroup" transform="translate(-290.000000, -327.000000)" fill="#D9E0E2">
            <g id="Group" sketch:type="MSLayerGroup" transform="translate(150.000000, 110.000000)">
                <g transform="translate(67.000000, 213.000000)" id="Behance" sketch:type="MSShapeGroup">
                    <path d="M83.8629177,5.83554524 L88.3648114,5.83554524 L88.3648114,4.50023202 L83.8629177,4.50023202 L83.8629177,5.83554524 L83.8629177,5.83554524 Z M84.9294187,8.74914153 C84.6425529,9.05132251 84.4616376,9.46069606 84.3876722,9.97726218 L87.889034,9.97726218 C87.8520513,9.42598608 87.6701364,9.00946636 87.348287,8.72259861 C87.0224395,8.43777262 86.621627,8.29587007 86.1418515,8.29587007 C85.6220946,8.29587007 85.2162845,8.44696056 84.9294187,8.74914153 L84.9294187,8.74914153 L84.9294187,8.74914153 Z M87.9679971,6.95647332 C88.5107432,7.20352668 88.9575341,7.59554524 89.3093695,8.13048724 C89.6302194,8.60213457 89.8361231,9.14932715 89.9300791,9.77104408 C89.9850534,10.134478 90.0070431,10.6612529 89.9980473,11.3462645 L84.3376956,11.3462645 C84.3716797,12.1415313 84.6395543,12.6999536 85.1513149,13.0194896 C85.4611699,13.2185615 85.8339955,13.3186079 86.2717907,13.3186079 C86.7325751,13.3186079 87.1093988,13.197123 87.3982636,12.955174 C87.5571893,12.8234803 87.6971238,12.6417633 87.8170677,12.4090023 L89.8910973,12.4090023 C89.8361231,12.8786079 89.5842409,13.3574014 89.1384495,13.8433411 C88.442775,14.6141067 87.4682309,15 86.2158169,15 C85.1813009,15 84.2687278,14.6753596 83.4800968,14.0240371 C82.6874676,13.3737355 82.2936519,12.3140603 82.2936519,10.8480742 C82.2936519,9.47294664 82.6504849,8.41837587 83.3631515,7.68436195 C84.0778171,6.95238979 85.0023846,6.58385151 86.1408519,6.58385151 C86.8175353,6.58385151 87.4262505,6.70839907 87.9679971,6.95647332 L87.9679971,6.95647332 L87.9679971,6.95647332 Z M75.0940203,10.0058469 L75.0940203,12.8673782 L77.6448269,12.8673782 C78.1006136,12.8673782 78.4564472,12.8040835 78.7093288,12.6785151 C79.1701133,12.4437123 79.4000057,11.9986079 79.4000057,11.3391183 C79.4000057,10.7796752 79.1781095,10.3968445 78.7313186,10.1875638 C78.4814355,10.0711833 78.1305996,10.0099304 77.68081,10.0058469 L75.0940203,10.0058469 L75.0940203,10.0058469 Z M75.0940203,5.86310905 L75.0940203,8.23053364 L77.648825,8.23053364 C78.1036122,8.23053364 78.4744387,8.14171694 78.760305,7.96408353 C79.0441722,7.78645012 79.1871053,7.47201856 79.1871053,7.02283063 C79.1871053,6.52157773 78.9991932,6.19183295 78.6233691,6.03053364 C78.2975215,5.91925754 77.8837151,5.86310905 77.3809503,5.86310905 L75.0940203,5.86310905 L75.0940203,5.86310905 Z M80.799351,5.14338747 C81.1202009,5.59972158 81.2811256,6.14487239 81.2811256,6.78088167 C81.2811256,7.43526682 81.1202009,7.96306265 80.7953529,8.3612065 C80.613438,8.5837587 80.3465628,8.78793503 79.9937279,8.97169374 C80.5294773,9.17178654 80.9332883,9.48723898 81.2081597,9.91907193 C81.4800325,10.349884 81.6169685,10.8746172 81.6169685,11.4912297 C81.6169685,12.127239 81.4610414,12.6979118 81.1481878,13.2022274 C80.9502804,13.5360557 80.7023964,13.817819 80.4045357,14.0464965 C80.0696924,14.3088631 79.6748771,14.4875174 79.2180908,14.585522 C78.7613045,14.6825058 78.2675355,14.7294664 77.7337853,14.7294664 L73,14.7294664 L73,4 L78.0766249,4 C79.3580253,4.01939675 80.2646012,4.40018561 80.799351,5.14338747 L80.799351,5.14338747 L80.799351,5.14338747 Z"></path>
                </g>
            </g>
        </g>
    </g>
</svg>