<?xml version="1.0" encoding="UTF-8" standalone="no"?>
<svg width="17px" height="17px" viewBox="0 0 17 17" version="1.1" xmlns="http://www.w3.org/2000/svg" xmlns:xlink="http://www.w3.org/1999/xlink" xmlns:sketch="http://www.bohemiancoding.com/sketch/ns">
    <!-- Generator: bin/sketchtool 1.4 (305) - http://www.bohemiancoding.com/sketch -->
    <title>Codepen</title>
    <desc>Created with bin/sketchtool.</desc>
    <defs></defs>
    <g id="Page-2" stroke="none" stroke-width="1" fill="none" fill-rule="evenodd" sketch:type="MSPage">
        <g id="Profiles" sketch:type="MSArtboardGroup" transform="translate(-327.000000, -323.000000)" fill="#D9E0E2">
            <g id="Group" sketch:type="MSLayerGroup" transform="translate(150.000000, 110.000000)">
                <g transform="translate(67.000000, 213.000000)" id="Codepen" sketch:type="MSShapeGroup">
                    <path d="M126.993625,5.8150625 C126.992031,5.80390625 126.989375,5.7938125 126.987781,5.7831875 C126.984063,5.76246875 126.980344,5.74175 126.975031,5.72209375 C126.971844,5.709875 126.967062,5.6981875 126.963344,5.6865 C126.9575,5.6684375 126.951656,5.65090625 126.94475,5.633375 C126.939969,5.62115625 126.934125,5.6089375 126.928281,5.59778125 C126.920844,5.58078125 126.912875,5.56484375 126.903312,5.5494375 C126.896937,5.53775 126.8895,5.52659375 126.882594,5.5154375 C126.873031,5.50003125 126.862938,5.48515625 126.851781,5.4708125 C126.843812,5.4601875 126.835312,5.4495625 126.826812,5.43946875 C126.815125,5.42565625 126.802906,5.412375 126.790156,5.399625 C126.780594,5.3900625 126.771563,5.37996875 126.761469,5.37146875 C126.747656,5.35925 126.733844,5.3475625 126.720031,5.33640625 C126.708875,5.32790625 126.69825,5.31940625 126.687094,5.3114375 C126.682844,5.30878125 126.679125,5.3050625 126.674875,5.30240625 L118.905344,0.12271875 C118.659906,-0.04090625 118.340625,-0.04090625 118.094656,0.12271875 L110.325656,5.30240625 C110.321406,5.3050625 110.317688,5.30878125 110.313437,5.3114375 C110.30175,5.31940625 110.291125,5.32790625 110.2805,5.33640625 C110.266156,5.3475625 110.252344,5.35925 110.239062,5.37146875 C110.228969,5.37996875 110.219406,5.3900625 110.209844,5.399625 C110.197094,5.412375 110.184875,5.42565625 110.173719,5.43946875 C110.164688,5.4495625 110.156188,5.4601875 110.148219,5.4708125 C110.137594,5.48515625 110.1275,5.50003125 110.117937,5.5154375 C110.1105,5.52659375 110.103594,5.53775 110.096688,5.5494375 C110.087656,5.56484375 110.079687,5.58078125 110.071719,5.59778125 C110.066406,5.6089375 110.060562,5.62115625 110.055781,5.633375 C110.048344,5.65090625 110.0425,5.6684375 110.036656,5.6865 C110.032938,5.6981875 110.028687,5.709875 110.0255,5.72209375 C110.020188,5.74175 110.016469,5.76246875 110.01275,5.7831875 C110.010625,5.7938125 110.007969,5.80390625 110.006906,5.8150625 C110.002656,5.845875 110,5.87775 110,5.91015625 L110,11.0898438 C110,11.1217188 110.002656,11.1535938 110.006906,11.1854688 C110.007969,11.1955625 110.010625,11.2061875 110.01275,11.2168125 C110.016469,11.2375312 110.020188,11.2577187 110.0255,11.2779062 C110.028687,11.290125 110.032938,11.3018125 110.036656,11.3135 C110.0425,11.3310313 110.048344,11.3490937 110.055781,11.3671562 C110.060562,11.3788437 110.066406,11.3905312 110.071719,11.4022187 C110.079687,11.4186875 110.087656,11.434625 110.096688,11.4510938 C110.103594,11.46225 110.1105,11.4734062 110.117937,11.4845625 C110.1275,11.4999687 110.137594,11.5143125 110.148219,11.5286562 C110.156188,11.5398125 110.164688,11.5504375 110.173719,11.5605312 C110.184875,11.5738125 110.197094,11.587625 110.209844,11.5998437 C110.219406,11.6099375 110.228969,11.6195 110.239062,11.6285313 C110.252344,11.64075 110.266156,11.6524375 110.2805,11.6635937 C110.291125,11.6720938 110.30175,11.6805937 110.313437,11.6885625 C110.317688,11.6912188 110.321406,11.6949375 110.325656,11.6975938 L118.094656,16.8772813 C118.217375,16.9590938 118.358688,17 118.5,17 C118.641312,17 118.782625,16.9590938 118.905344,16.8772813 L126.674875,11.6975938 C126.679125,11.6949375 126.682844,11.6912188 126.687094,11.6885625 C126.69825,11.6805937 126.708875,11.6720938 126.720031,11.6635937 C126.733844,11.6524375 126.747656,11.64075 126.761469,11.6285313 C126.771563,11.6195 126.780594,11.6099375 126.790156,11.5998437 C126.802906,11.587625 126.815125,11.5738125 126.826812,11.5605312 C126.835312,11.5504375 126.843812,11.5398125 126.851781,11.5286562 C126.862938,11.5143125 126.873031,11.4999687 126.882594,11.4845625 C126.8895,11.4734062 126.896937,11.46225 126.903312,11.4510938 C126.912875,11.434625 126.920844,11.4186875 126.928281,11.4022187 C126.934125,11.3905312 126.939969,11.3788437 126.94475,11.3671562 C126.951656,11.3490937 126.9575,11.3310313 126.963344,11.3135 C126.967062,11.3018125 126.971844,11.290125 126.975031,11.2779062 C126.980344,11.2577187 126.984063,11.2375312 126.987781,11.2168125 C126.989375,11.2061875 126.992031,11.1955625 126.993625,11.1854688 C126.997875,11.1535938 127,11.1217188 127,11.0898438 L127,5.91015625 C127,5.87775 126.997875,5.845875 126.993625,5.8150625 L126.993625,5.8150625 L126.993625,5.8150625 Z M119.230469,2.09578125 L124.954156,5.91121875 L122.397781,7.6213125 L119.230469,5.5026875 L119.230469,2.09578125 L119.230469,2.09578125 Z M117.769531,2.09578125 L117.769531,5.5026875 L114.60275,7.6213125 L112.045844,5.91121875 L117.769531,2.09578125 L117.769531,2.09578125 Z M111.460938,7.27759375 L113.288969,8.5 L111.460938,9.72240625 L111.460938,7.27759375 L111.460938,7.27759375 Z M117.769531,14.9042188 L112.045844,11.0887812 L114.60275,9.37921875 L117.769531,11.4973125 L117.769531,14.9042188 L117.769531,14.9042188 Z M118.5,10.2281562 L115.916531,8.5 L118.5,6.77184375 L121.084,8.5 L118.5,10.2281562 L118.5,10.2281562 Z M119.230469,14.9042188 L119.230469,11.4973125 L122.397781,9.37921875 L124.954156,11.0887812 L119.230469,14.9042188 L119.230469,14.9042188 Z M125.539062,9.72240625 L123.711563,8.5 L125.539062,7.27759375 L125.539062,9.72240625 L125.539062,9.72240625 Z"></path>
                </g>
            </g>
        </g>
    </g>
</svg>