<?xml version="1.0" encoding="UTF-8" standalone="no"?>
<svg width="17px" height="17px" viewBox="0 0 17 17" version="1.1" xmlns="http://www.w3.org/2000/svg" xmlns:xlink="http://www.w3.org/1999/xlink" xmlns:sketch="http://www.bohemiancoding.com/sketch/ns">
    <!-- Generator: bin/sketchtool 1.4 (305) - http://www.bohemiancoding.com/sketch -->
    <title>Dribbble</title>
    <desc>Created with bin/sketchtool.</desc>
    <defs></defs>
    <g id="Page-2" stroke="none" stroke-width="1" fill="none" fill-rule="evenodd" sketch:type="MSPage">
        <g id="Profiles" sketch:type="MSArtboardGroup" transform="translate(-254.000000, -323.000000)" fill="#D9E0E2">
            <g id="Group" sketch:type="MSLayerGroup" transform="translate(150.000000, 110.000000)">
                <g transform="translate(67.000000, 213.000000)" id="Dribbble" sketch:type="MSShapeGroup">
                    <path d="M49.5568295,14.5203128 C49.48286,14.0825445 49.0960193,11.9516726 48.1434115,9.33605738 C50.4874463,8.96125581 52.5176104,9.60391557 52.6675487,9.65288965 C52.3446816,11.6758187 51.1861586,13.4198953 49.5568295,14.5203128 L49.5568295,14.5203128 L49.5568295,14.5203128 Z M45.5004998,15.7596567 C43.7432234,15.7596567 42.1318869,15.1349874 40.8754042,14.0955377 C40.9713647,14.1734964 41.0383372,14.2224705 41.0383372,14.2224705 C41.0383372,14.2224705 42.4297642,11.1880769 46.7349915,9.68787113 C46.7509849,9.6818743 46.7679779,9.67787642 46.7839713,9.67287906 C47.8055507,12.3264742 48.2263774,14.5492974 48.3343329,15.1839614 C47.4636914,15.5537657 46.5050861,15.7596567 45.5004998,15.7596567 L45.5004998,15.7596567 L45.5004998,15.7596567 Z M38.2404892,8.49950026 C38.2404892,8.42254101 38.2444876,8.34658122 38.2464867,8.27062144 C38.3754336,8.27361985 41.9619568,8.35457699 45.6994179,7.23616909 C45.9073323,7.64295373 46.1062504,8.05773414 46.2881755,8.47051561 C46.192215,8.49650185 46.0972541,8.52548651 46.0022932,8.55746957 C42.0849062,9.82279969 40.0977245,13.346934 40.0977245,13.346934 C40.0977245,13.346934 40.1007232,13.3499324 40.1007232,13.3509319 C38.9441994,12.0646129 38.2404892,10.3645129 38.2404892,8.49950026 L38.2404892,8.49950026 L38.2404892,8.49950026 Z M42.4027753,1.93597507 C42.4997354,2.06490681 43.8421826,3.88494327 45.0986653,6.11776119 C41.6131005,7.04427068 38.5873464,7.00729026 38.396425,7.00429185 C38.8672311,4.75548239 40.3776092,2.89146922 42.4027753,1.93597507 L42.4027753,1.93597507 L42.4027753,1.93597507 Z M43.761216,1.45223117 C43.761216,1.45323064 43.7602164,1.45423011 43.7602164,1.45423011 C43.7602164,1.45423011 43.7512201,1.45622906 43.7382254,1.458228 C43.7462221,1.45622906 43.7532193,1.45522958 43.761216,1.45223117 L43.761216,1.45223117 L43.761216,1.45223117 Z M50.2945258,3.0533835 C50.2765332,3.08036922 49.2429588,4.65453583 46.5020874,5.68099242 C45.2615982,3.40119937 43.8981596,1.59015815 43.7892044,1.44623435 C44.3379785,1.31330472 44.9107426,1.24134282 45.5004998,1.24134282 C47.3377433,1.24134282 49.0160522,1.92697983 50.2945258,3.0533835 L50.2945258,3.0533835 L50.2945258,3.0533835 Z M52.7575116,8.42753836 C52.6525548,8.40455053 50.1955665,7.87583044 47.7015935,8.1896643 C47.6496149,8.06572991 47.5986359,7.94079605 47.5446581,7.81586219 C47.3937202,7.46005056 47.2307873,7.10823682 47.0618569,6.7624199 C49.9286764,5.59203951 51.0921973,3.90993004 51.1061916,3.88994062 C52.1237726,5.12628608 52.7405186,6.70545006 52.7575116,8.42753836 L52.7575116,8.42753836 L52.7575116,8.42753836 Z M53.8280708,6.78940561 C53.7161169,6.24369451 53.548186,5.70497972 53.3312754,5.19125169 C53.1193626,4.68751837 52.8544717,4.20177553 52.547598,3.74801576 C52.2447228,3.29825387 51.8948668,2.87447822 51.5110249,2.4906814 C51.1261833,2.10588512 50.7033574,1.75706979 50.2525431,1.45323064 C49.7987299,1.14539362 49.31293,0.882532777 48.8091374,0.668646011 C48.295349,0.452760303 47.7575704,0.284849197 47.2117951,0.173907931 C46.6520256,0.0589687812 46.0762627,0 45.5004998,0 C44.9237373,0 44.3479744,0.0589687812 43.7882049,0.173907931 C43.2424296,0.284849197 42.704651,0.452760303 42.1908626,0.668646011 C41.68707,0.882532777 41.2012701,1.14539362 40.7464573,1.45323064 C40.2966426,1.75706979 39.8738167,2.10588512 39.4889751,2.4906814 C39.1051332,2.87447822 38.7562768,3.29825387 38.452402,3.74801576 C38.1455283,4.20177553 37.8806374,4.68751837 37.6687246,5.19125169 C37.4508144,5.70497972 37.2838831,6.24369451 37.1719292,6.78940561 C37.0579761,7.34810982 37,7.92380504 37,8.49950026 C37,9.07719443 37.0579761,9.65288965 37.1719292,10.2125933 C37.2838831,10.7583044 37.4508144,11.2960198 37.6687246,11.8087483 C37.8806374,12.3124816 38.1455283,12.8002234 38.452402,13.2539832 C38.7562768,13.7037451 39.1051332,14.1255218 39.4889751,14.5113175 C39.8738167,14.8951144 40.2966426,15.2429302 40.7464573,15.5477688 C41.2012701,15.8546064 41.68707,16.1184667 42.1908626,16.331354 C42.704651,16.5492386 43.2424296,16.7151508 43.7882049,16.8260921 C44.3479744,16.9420307 44.9237373,17 45.5004998,17 C46.0762627,17 46.6520256,16.9420307 47.2117951,16.8260921 C47.7575704,16.7151508 48.295349,16.5492386 48.8091374,16.331354 C49.31293,16.1184667 49.7987299,15.8546064 50.2525431,15.5477688 C50.7033574,15.2429302 51.1261833,14.8951144 51.5110249,14.5113175 C51.8948668,14.1255218 52.2447228,13.7037451 52.547598,13.2539832 C52.8544717,12.8002234 53.1193626,12.3124816 53.3312754,11.8087483 C53.548186,11.2960198 53.7161169,10.7583044 53.8280708,10.2125933 C53.9420239,9.65288965 54,9.07719443 54,8.49950026 C54,7.92380504 53.9420239,7.34810982 53.8280708,6.78940561 L53.8280708,6.78940561 L53.8280708,6.78940561 Z"></path>
                </g>
            </g>
        </g>
    </g>
</svg>