<?xml version="1.0" encoding="UTF-8" standalone="no"?>
<svg width="34px" height="34px" viewBox="0 0 34 34" version="1.1" xmlns="http://www.w3.org/2000/svg" xmlns:xlink="http://www.w3.org/1999/xlink" xmlns:sketch="http://www.bohemiancoding.com/sketch/ns">
    <!-- Generator: bin/sketchtool 1.4 (305) - http://www.bohemiancoding.com/sketch -->
    <title>Messages</title>
    <desc>Created with bin/sketchtool.</desc>
    <defs></defs>
    <g id="Page-2" stroke="none" stroke-width="1" fill="none" fill-rule="evenodd" sketch:type="MSPage">
        <g id="Individual-Profile" sketch:type="MSArtboardGroup" transform="translate(-1164.000000, -13.000000)">
            <g id="Polygon-1-+-Jackass-+-Polygon-1-+-J" sketch:type="MSLayerGroup" transform="translate(151.000000, 13.000000)">
                <g id="Rectangle-104-+-Shape" transform="translate(954.000000, 0.000000)" sketch:type="MSShapeGroup">
                    <g id="Messages" transform="translate(59.000000, 0.000000)">
                        <rect id="Rectangle-104-Copy" fill="#1DB475" x="0" y="0" width="34" height="34" rx="4"></rect>
                        <path d="M21.1875,21.2499414 L21.1872656,25 L17.0620312,21.2499414 L11.8125,21.2499414 C10.2590625,21.2499414 9,20.4598509 9,18.9063892 L9,12.8123096 C9,11.2593166 10.2590625,10 11.8125,10 L21.1872656,10 C22.7407031,10 24,11.2590822 24,12.8123096 L24,18.4378662 C24,19.9910936 22.7407031,21.2499414 21.1875,21.2499414 L21.1875,21.2499414 Z M23.0622656,12.8123096 C23.0622656,11.777059 22.2229687,10.9372803 21.1872656,10.9372803 L11.8125,10.9372803 C10.7767969,10.9372803 9.93726562,11.7768246 9.93726562,12.8123096 L9.93726562,18.9063892 C9.93726562,19.9421085 10.7767969,20.3126611 11.8125,20.3126611 L17.4372656,20.3126611 L20.2497656,22.9163737 L20.2497656,20.3126611 L21.1872656,20.3126611 C22.2229687,20.3126611 23.0622656,19.4733511 23.0622656,18.4378662 L23.0622656,12.8123096 L23.0622656,12.8123096 Z M19.7810156,14.6873389 L13.2185156,14.6873389 C12.9597656,14.6873389 12.7497656,14.4773356 12.7497656,14.2188159 C12.7497656,13.9600619 12.9597656,13.7500586 13.2185156,13.7500586 L19.7810156,13.7500586 C20.0397656,13.7500586 20.2497656,13.9600619 20.2497656,14.2188159 C20.2497656,14.47757 20.04,14.6873389 19.7810156,14.6873389 L19.7810156,14.6873389 Z M14.1560156,16.5626025 L18.8435156,16.5626025 C19.1025,16.5626025 19.3122656,16.7726058 19.3122656,17.0315942 C19.3122656,17.2903483 19.1025,17.5001172 18.8435156,17.5001172 L14.1560156,17.5001172 C13.8972656,17.5001172 13.6872656,17.2903483 13.6872656,17.0315942 C13.6872656,16.7723714 13.8975,16.5626025 14.1560156,16.5626025 L14.1560156,16.5626025 Z" id="Shape" fill="#FFFFFF"></path>
                    </g>
                </g>
            </g>
        </g>
    </g>
</svg>