<?xml version="1.0" encoding="UTF-8" standalone="no"?>
<svg width="34px" height="34px" viewBox="0 0 34 34" version="1.1" xmlns="http://www.w3.org/2000/svg" xmlns:xlink="http://www.w3.org/1999/xlink" xmlns:sketch="http://www.bohemiancoding.com/sketch/ns">
    <!-- Generator: bin/sketchtool 1.4 (305) - http://www.bohemiancoding.com/sketch -->
    <title>Notifications</title>
    <desc>Created with bin/sketchtool.</desc>
    <defs></defs>
    <g id="Page-2" stroke="none" stroke-width="1" fill="none" fill-rule="evenodd" sketch:type="MSPage">
        <g id="Individual-Profile" sketch:type="MSArtboardGroup" transform="translate(-1105.000000, -13.000000)">
            <g id="Polygon-1-+-Jackass-+-Polygon-1-+-J" sketch:type="MSLayerGroup" transform="translate(151.000000, 13.000000)">
                <g id="Rectangle-104-+-Shape" transform="translate(954.000000, 0.000000)" sketch:type="MSShapeGroup">
                    <g id="Notifications">
                        <rect id="Rectangle-104" fill="#1DB475" x="0" y="0" width="34" height="34" rx="4"></rect>
                        <path d="M21.71875,16.5626318 C19.9067969,16.5626318 18.4375,15.0931235 18.4375,13.2811987 C18.4375,11.4690395 19.9067969,10 21.71875,10 C23.5309375,10 25,11.4690395 25,13.2811987 C25,15.0933579 23.5309375,16.5626318 21.71875,16.5626318 L21.71875,16.5626318 Z M21.71875,10.9374854 C20.4245313,10.9374854 19.375,11.9870002 19.375,13.2811987 C19.375,14.575866 20.4245313,15.6251465 21.71875,15.6251465 C23.0132031,15.6251465 24.0625,14.575866 24.0625,13.2811987 C24.0625,11.9870002 23.0132031,10.9374854 21.71875,10.9374854 L21.71875,10.9374854 Z M10.9377344,13.7501758 L10.9377344,22.1875439 C10.9377344,23.2234653 11.7770313,24.0622803 12.8127344,24.0622803 L21.25,24.0622803 C22.2857031,24.0622803 23.125,23.2234653 23.125,22.1875439 L23.125,17.5001172 L24.0625,17.5001172 L24.0625,22.1875439 C24.0625,23.7404884 22.8032031,25 21.25,25 L12.8127344,25 C11.2592969,25 10,23.7404884 10,22.1875439 L10,13.7501758 C10,12.1965282 11.2592969,10.9374854 12.8127344,10.9374854 L17.5,10.9374854 L17.5,11.8749707 L12.8127344,11.8749707 C11.7770313,11.8749707 10.9377344,12.7144888 10.9377344,13.7501758 L10.9377344,13.7501758 Z" id="Shape" fill="#FFFFFF"></path>
                    </g>
                </g>
            </g>
        </g>
    </g>
</svg>