<?xml version="1.0" encoding="UTF-8" standalone="no"?>
<svg width="25px" height="25px" viewBox="0 0 25 25" version="1.1" xmlns="http://www.w3.org/2000/svg" xmlns:xlink="http://www.w3.org/1999/xlink" xmlns:sketch="http://www.bohemiancoding.com/sketch/ns">
    <!-- Generator: bin/sketchtool 1.4 (305) - http://www.bohemiancoding.com/sketch -->
    <title>Shape</title>
    <desc>Created with bin/sketchtool.</desc>
    <defs></defs>
    <g id="Page-2" stroke="none" stroke-width="1" fill="none" fill-rule="evenodd" sketch:type="MSPage">
        <g id="Individual-Profile" sketch:type="MSArtboardGroup" transform="translate(-374.000000, -538.000000)" fill="#26C281">
            <g id="Group" sketch:type="MSLayerGroup" transform="translate(344.000000, 99.000000)">
                <g id="SUMMARY-+-Shape" transform="translate(30.000000, 439.000000)" sketch:type="MSShapeGroup">
                    <path d="M21.875,25 L7.03125,25 L5.46875,25 L3.90625,25 L3.125,25 C1.40195312,25 0,23.5988719 0,21.8750977 L0,10.9379394 L6.25,10.9387207 L6.25,0.00156245117 L25,0 L25,21.874707 C25,23.5984813 23.5984375,25 21.875,25 L21.875,25 Z M6.25039063,21.8762695 L6.25039063,20.3142089 L6.25039063,12.5015625 L1.56289063,12.5 L1.56289063,21.8750977 C1.56289063,22.7363989 2.26367188,23.4375488 3.12539063,23.4375488 L3.12539063,23.4375488 L3.12539063,23.4395019 L6.25039063,23.4395019 L6.25039063,21.8762695 L6.25039063,21.8762695 Z M23.4378906,1.56284179 L7.81289063,1.56440424 L7.81289063,23.4391113 L21.8753906,23.4379394 C22.7371094,23.4379394 23.4378906,22.7367895 23.4378906,21.8754883 L23.4378906,1.56284179 L23.4378906,1.56284179 Z M9.375,20.3138183 L21.875,20.3138183 L21.875,21.8754883 L9.375,21.8754883 L9.375,20.3138183 L9.375,20.3138183 Z M9.375,17.1873535 L21.875,17.1873535 L21.875,18.7501953 L9.375,18.7501953 L9.375,17.1873535 L9.375,17.1873535 Z M9.375,6.25019531 L21.875,6.25019531 L21.875,15.6245117 L9.375,15.6245117 L9.375,6.25019531 L9.375,6.25019531 Z M10.9433594,14.0671385 L20.3070313,14.0671385 L20.3070313,7.80756851 L10.9433594,7.80756851 L10.9433594,14.0671385 L10.9433594,14.0671385 Z M9.375,3.12568357 L21.875,3.12568357 L21.875,4.68774413 L9.375,4.68774413 L9.375,3.12568357 L9.375,3.12568357 Z" id="Shape"></path>
                </g>
            </g>
        </g>
    </g>
</svg>