<?xml version="1.0" encoding="UTF-8" standalone="no"?>
<svg width="17px" height="15px" viewBox="0 0 17 15" version="1.1" xmlns="http://www.w3.org/2000/svg" xmlns:xlink="http://www.w3.org/1999/xlink" xmlns:sketch="http://www.bohemiancoding.com/sketch/ns">
    <!-- Generator: bin/sketchtool 1.4 (305) - http://www.bohemiancoding.com/sketch -->
    <title>Twitter</title>
    <desc>Created with bin/sketchtool.</desc>
    <defs></defs>
    <g id="Page-2" stroke="none" stroke-width="1" fill="none" fill-rule="evenodd" sketch:type="MSPage">
        <g id="Profiles" sketch:type="MSArtboardGroup" transform="translate(-217.000000, -325.000000)" fill="#D9E0E2">
            <g id="Group" sketch:type="MSLayerGroup" transform="translate(150.000000, 110.000000)">
                <g transform="translate(67.000000, 213.000000)" id="Twitter" sketch:type="MSShapeGroup">
                    <path d="M17,3.77573131 C16.3753595,4.07692308 15.7028233,4.28060672 14.9973587,4.3716143 C15.7177907,3.9035753 16.2705875,3.16143012 16.5310207,2.27735645 C15.8564888,2.71072589 15.1111111,3.02600217 14.3148442,3.19501625 C13.6802254,2.45937161 12.7731995,2 11.7693843,2 C9.84457358,2 8.28297235,3.69555796 8.28297235,5.78656555 C8.28297235,6.08342362 8.3129072,6.3716143 8.3727769,6.64897075 C5.47408581,6.4907909 2.90467805,4.98483207 1.18342431,2.69122427 C0.883078007,3.2524377 0.711451547,3.9035753 0.711451547,4.59696641 C0.711451547,5.91007584 1.32711158,7.06933911 2.26307448,7.74864572 C1.69231672,7.73022752 1.15348946,7.55796316 0.682514527,7.27627302 L0.682514527,7.32286024 C0.682514527,9.15817985 1.88489758,10.6890574 3.48142279,11.035753 C3.18905911,11.1245937 2.88073018,11.1690141 2.56242296,11.1690141 C2.3379116,11.1690141 2.11838939,11.1462622 1.90585197,11.1018418 C2.34988554,12.6056338 3.63708399,13.7009751 5.16376123,13.7302275 C3.97035863,14.7464789 2.46563362,15.3521127 0.832188766,15.3521127 C0.550801197,15.3521127 0.272407114,15.3347779 0,15.3001083 C1.54364031,16.3726977 3.37764865,17 5.3463638,17 C11.7623995,17 15.2697658,11.2307692 15.2697658,6.22643554 C15.2697658,6.06175515 15.2667723,5.89707476 15.2607853,5.73564464 C15.942302,5.20151679 16.5340142,4.53521127 17,3.77573131"></path>
                </g>
            </g>
        </g>
    </g>
</svg>